<svg width="64" height="20" viewBox="0 0 64 20" fill="none" xmlns="http://www.w3.org/2000/svg">
<path d="M53.9575 15.5739C54.1056 15.8925 53.9604 16.1467 53.8799 16.3995C53.6515 17.1166 53.3407 17.7952 52.8776 18.3965C52.5422 18.8319 52.1457 19.1845 51.5978 19.3172C50.756 19.5212 50.038 19.2088 49.6324 18.4243C49.4396 18.0517 49.3239 17.6392 49.1731 17.2449C49.1531 17.1924 49.134 17.1393 49.1253 17.1163C48.8578 17.5502 48.6075 18.0037 48.3109 18.4249C47.9092 18.9954 47.2294 19.2152 46.6375 18.9931C46.1323 18.8037 45.8539 18.402 45.6786 17.9118C45.4328 17.2241 45.4144 16.5177 45.4816 15.7999C45.5363 15.2162 45.5822 14.6315 45.6178 14.0465C45.6666 13.2403 45.71 12.4335 45.7381 11.6264C45.7455 11.4159 45.72 11.1925 45.6537 10.9938C45.481 10.4761 44.9318 10.2789 44.4373 10.5363C44.0599 10.7325 43.7707 11.0346 43.5479 11.3839C42.9269 12.3577 42.4845 13.4112 42.3202 14.5593C42.2083 15.3405 42.1595 16.1311 42.087 16.9179C42.0408 17.4216 42.0078 17.9264 41.9567 18.4295C41.9479 18.5166 41.8959 18.6147 41.8338 18.6778C41.6679 18.8465 41.457 18.9423 41.2209 18.965C41.034 18.9828 40.9628 18.9362 40.924 18.7487C40.8612 18.4453 40.816 18.1384 40.7642 17.8328C40.7484 17.7396 40.7361 17.646 40.7173 17.5187C40.5249 17.746 40.3525 17.9555 40.174 18.1595C39.8667 18.5104 39.5795 18.8847 39.1523 19.1052C38.532 19.4257 37.8201 19.2505 37.4081 18.6862C37.0488 18.1941 36.8819 17.6275 36.7525 17.0444C36.7376 16.9768 36.7205 16.9094 36.7027 16.8427C36.6979 16.8243 36.6865 16.8078 36.6843 16.8036C36.4255 17.2306 36.1852 17.6722 35.901 18.084C35.583 18.5447 35.183 18.9284 34.6422 19.1272C33.9064 19.3975 33.2505 19.2227 32.6648 18.7387C32.1163 18.2854 31.8213 17.6709 31.6121 17.0072C31.5991 16.9667 31.5852 16.9263 31.5865 16.9302C31.2447 17.477 30.9002 18.052 30.5309 18.6101C30.3055 18.9507 30.0438 19.269 29.6693 19.4639C29.134 19.7426 28.5225 19.6517 28.0797 19.2376C27.712 18.8937 27.4794 18.458 27.2469 18.0225C27.0845 17.7182 26.9345 17.4071 26.7747 17.0901C26.6586 17.3099 26.5525 17.5411 26.4196 17.7554C26.1418 18.2035 25.8432 18.637 25.4205 18.9676C24.4503 19.7264 23.2695 19.4195 22.7032 18.3417C22.4593 17.8775 22.3144 17.3795 22.2339 16.8654C22.0883 15.9375 22.0463 15.0006 22.079 14.0639C22.1055 13.3008 22.1702 12.5387 22.2319 11.7772C22.2724 11.28 22.3367 10.7843 22.3936 10.2883C22.4176 10.0801 22.4926 9.90529 22.7135 9.82856C23.0395 9.71524 23.3578 9.57441 23.6902 9.4857C23.9493 9.41642 24.0787 9.54559 24.0635 9.81172C24.0518 10.0154 24.0208 10.218 23.9952 10.4207C23.947 10.8037 23.8943 11.1864 23.8477 11.5697C23.7934 12.0175 23.7387 12.4652 23.6928 12.914C23.6517 13.3151 23.6123 13.7172 23.5913 14.12C23.568 14.5667 23.5447 15.0155 23.5612 15.4616C23.5851 16.1043 23.6201 16.7498 23.8461 17.3633C23.8995 17.5081 23.9638 17.6512 24.0434 17.7833C24.3526 18.2977 24.9273 18.3919 25.4257 18.0245C25.8429 17.7172 26.1126 17.2979 26.3685 16.8583C26.5596 16.53 26.5683 16.2221 26.4865 15.8527C26.3245 15.1217 26.2178 14.3773 26.1139 13.6346C25.939 12.382 25.9147 11.12 25.9626 9.85899C25.9933 9.05284 26.0577 8.24636 26.1485 7.44474C26.2524 6.52851 26.372 5.61195 26.5399 4.70543C26.7469 3.58815 27.0535 2.49547 27.6298 1.50024C27.8216 1.16936 28.0334 0.851432 28.3523 0.625773C28.9778 0.183522 29.755 0.339572 30.2029 1.00619C30.5196 1.47725 30.6803 2.0108 30.7321 2.56928C30.8414 3.74646 30.69 4.90746 30.4817 6.06424C30.1819 7.72835 29.6085 9.29371 28.832 10.7921C28.4956 11.4412 28.068 12.0201 27.5942 12.5692C27.4464 12.7404 27.3808 12.9233 27.3934 13.1571C27.4529 14.2699 27.5629 15.3739 27.8552 16.4539C27.9875 16.9421 28.1615 17.4106 28.4422 17.8351C28.8769 18.4916 29.4872 18.569 30.0888 18.052C30.5044 17.6949 30.7835 17.2368 31.0613 16.7767C31.245 16.4727 31.3941 16.1525 31.4251 15.7944C31.4413 15.6076 31.4193 15.4179 31.4174 15.2295C31.4025 13.8979 31.6247 12.6142 32.2117 11.4091C32.6111 10.5891 33.1092 9.84313 33.8883 9.329C34.1978 9.12471 34.5248 8.96057 34.8974 8.89484C35.5455 8.78023 36.0319 9.03535 36.3896 9.55466C36.5526 9.79133 36.6697 10.0597 36.8091 10.3126C36.8411 10.3705 36.8793 10.4246 36.9323 10.5084C36.9902 9.96162 37.0446 9.45203 37.0979 8.94632C37.652 8.86409 38.2619 9.30116 38.3586 9.89169C38.41 10.2041 38.3719 10.534 38.3528 10.8549C38.326 11.3055 38.2765 11.7549 38.2409 12.2049C38.1963 12.7686 38.1455 13.3316 38.1167 13.8962C38.0789 14.6438 38.0271 15.392 38.1332 16.1392C38.1882 16.5271 38.2221 16.9188 38.2923 17.3041C38.4259 18.0355 39.1811 18.2572 39.7584 17.757C40.1074 17.4546 40.3629 17.0755 40.599 16.6838C40.6384 16.6181 40.6604 16.5326 40.6633 16.4555C40.6915 15.7284 40.7131 15.0006 40.738 14.2734C40.7807 13.0179 40.8241 11.7624 40.8677 10.5068C40.8745 10.3077 40.8664 10.1054 40.8991 9.91014C40.9217 9.77384 40.9783 9.62912 41.0621 9.52034C41.2843 9.23123 41.5915 9.07161 41.956 9.04636C42.2157 9.02823 42.3774 9.18493 42.3739 9.46012C42.3684 9.86967 42.3425 10.2789 42.326 10.6881C42.3069 11.1595 42.2882 11.6309 42.2694 12.102C42.2872 12.1072 42.305 12.112 42.3231 12.1172C42.3454 12.0706 42.37 12.0246 42.3901 11.9767C42.6604 11.3321 42.9667 10.7076 43.4328 10.1776C43.8548 9.69776 44.337 9.30472 44.9845 9.17651C45.5492 9.06482 46.0877 9.1273 46.5538 9.4925C46.8956 9.76057 47.0421 10.1491 47.1317 10.559C47.2617 11.1547 47.2468 11.7549 47.1744 12.3571C47.1126 12.8693 47.0622 13.3828 47.0046 13.8953C46.9538 14.3488 46.8959 14.8018 46.8484 15.2557C46.7811 15.8996 46.7617 16.5436 46.8659 17.1863C46.8879 17.3229 46.8992 17.4644 46.9448 17.5929C47.023 17.814 47.1948 17.9364 47.4276 17.9639C47.6692 17.9927 47.8445 17.8749 47.9645 17.681C48.1217 17.4265 48.2676 17.1646 48.4102 16.9013C48.5628 16.6197 48.6935 16.3254 48.8581 16.0512C48.9771 15.8527 48.9778 15.6484 48.9791 15.4331C48.9839 14.6033 48.9817 13.7732 49.0101 12.9441C49.0289 12.4018 49.0903 11.8608 49.1427 11.3201C49.1783 10.951 49.2265 10.5832 49.2789 10.2161C49.3038 10.0426 49.3918 9.90432 49.568 9.83924C49.8921 9.7201 50.2087 9.5757 50.5406 9.48538C50.895 9.3889 50.9581 9.6275 50.9397 9.85252C50.9186 10.1089 50.875 10.3637 50.8439 10.6195C50.7692 11.2317 50.6618 11.8426 50.6298 12.4575C50.5642 13.7166 50.5315 14.9776 50.5017 16.2383C50.4904 16.7155 50.612 17.1752 50.8184 17.6052C51.1709 18.3398 51.8333 18.4635 52.4423 17.9154C52.8359 17.5612 53.1153 17.1238 53.3459 16.6524C53.5008 16.3357 53.6493 16.0159 53.809 15.7015C53.8352 15.6497 53.9041 15.6196 53.9575 15.5762V15.5739ZM36.7296 13.2235C36.6678 12.709 36.6354 12.2467 36.552 11.7941C36.4589 11.2893 36.2994 10.8011 35.9828 10.3815C35.6768 9.97587 35.2367 9.85511 34.8055 10.0688C34.465 10.2375 34.1829 10.49 34.0005 10.8157C33.6183 11.4982 33.277 12.2014 33.0743 12.9645C32.8184 13.926 32.7088 14.8921 32.9342 15.8763C33.073 16.4818 33.2851 17.0487 33.7784 17.4624C34.0762 17.7124 34.4171 17.8289 34.7916 17.6622C34.9588 17.5877 35.1218 17.4744 35.2476 17.3417C35.9197 16.632 36.3133 15.7617 36.5449 14.8319C36.6781 14.2974 36.6759 13.7292 36.7296 13.2235ZM27.307 11.5127C27.3009 11.514 27.2951 11.5157 27.2889 11.5169C27.309 11.5833 27.3287 11.6497 27.3488 11.7161C27.4063 11.672 27.4827 11.64 27.5179 11.5823C27.7333 11.2324 27.9581 10.8866 28.1447 10.5211C28.7333 9.36915 29.1509 8.15247 29.4031 6.88561C29.558 6.10859 29.6596 5.32057 29.7654 4.53481C29.8236 4.10324 29.8346 3.66585 29.8776 3.23201C29.9293 2.71174 29.7857 2.23258 29.5707 1.77284C29.461 1.53812 29.1871 1.50315 29.005 1.67863C28.9523 1.72946 28.9073 1.79454 28.8772 1.86123C28.7382 2.16718 28.5826 2.46795 28.4746 2.78491C28.0121 4.14307 27.7682 5.54947 27.6023 6.96946C27.5211 7.6636 27.4717 8.36162 27.4277 9.05931C27.3759 9.87615 27.3458 10.6946 27.3067 11.5124L27.307 11.5127Z" fill="#ED3033"/>
<path d="M17.1206 11.1543C16.7131 11.1931 16.3289 11.2287 15.9446 11.2669C15.442 11.3168 14.9401 11.3725 14.4369 11.4178C13.955 11.4612 13.4727 11.5156 12.9899 11.5272C12.2965 11.5437 11.6001 11.5586 10.9093 11.5123C10.3298 11.4735 9.75309 11.3605 9.18064 11.2517C8.91058 11.2002 8.65185 11.086 8.39117 10.9911C8.27765 10.95 8.21588 10.8664 8.2217 10.7305C8.2314 10.5116 8.22429 10.2921 8.22429 10.0363C8.46491 10.0998 8.6525 10.1509 8.84073 10.1985C9.49339 10.363 10.157 10.3896 10.8236 10.3303C11.6153 10.26 12.4061 10.1772 13.1962 10.0917C13.9213 10.0133 14.6448 9.9201 15.3699 9.84111C15.9463 9.7783 16.5252 9.73621 17.1009 9.66725C17.8499 9.57757 18.6002 9.51508 19.3545 9.54519C19.7565 9.56106 20.1607 9.58437 20.5576 9.64556C21.0113 9.71549 21.2778 10.0279 21.3212 10.4889C21.3406 10.6965 21.3487 10.9076 21.3357 11.1154C21.3228 11.3229 21.2769 11.5285 21.2406 11.7675C20.4767 11.2235 19.6391 10.9953 18.696 11.1102C18.6772 11.3964 18.6478 11.6891 18.6413 11.9828C18.6245 12.7429 18.6006 13.5038 18.6116 14.2639C18.6235 15.0824 18.6572 15.9015 18.7099 16.7187C18.7406 17.1939 18.8283 17.6657 18.8891 18.1393C18.9107 18.308 18.8299 18.4307 18.7002 18.5233C18.3509 18.7729 17.955 18.8386 17.5378 18.7975C17.3755 18.7816 17.2703 18.667 17.2535 18.4987C17.185 17.8136 17.1209 17.1279 17.0543 16.4428C17.042 16.3146 17.0262 16.1867 17.0087 16.0313C16.9401 16.0825 16.8748 16.123 16.8195 16.1741C15.7005 17.2072 14.4524 18.0296 13.0015 18.5201C12.388 18.7276 11.7589 18.8639 11.1134 18.938C10.4575 19.0135 9.80225 19.0241 9.1483 18.9584C7.79446 18.8224 6.49625 18.4747 5.25885 17.8994C4.13982 17.3791 3.13463 16.6963 2.26592 15.8193C1.15045 14.6932 0.437305 13.3474 0.149138 11.7882C-0.182367 9.99554 0.0239745 8.27769 0.91726 6.66505C1.46319 5.67921 2.20415 4.85428 3.02596 4.09637C3.66245 3.5094 4.35198 2.99236 5.0994 2.55496C6.19159 1.91587 7.35623 1.46714 8.59816 1.21752C9.52864 1.03039 10.4675 0.952366 11.4148 0.964021C13.628 0.991541 15.683 1.57301 17.5727 2.72914C17.8923 2.92469 18.2076 3.12704 18.52 3.3336C18.7616 3.49321 18.771 3.61721 18.5411 3.78718C18.2235 4.02223 17.8952 4.24368 17.5659 4.46318C17.4382 4.54833 17.3237 4.4729 17.2105 4.40264C16.6833 4.07565 16.1675 3.72664 15.6219 3.43364C14.6937 2.93505 13.6956 2.62068 12.6561 2.45363C11.8414 2.32283 11.0183 2.27815 10.1952 2.35488C8.72656 2.49151 7.30222 2.81559 5.96067 3.44529C4.36686 4.19349 3.19575 5.37683 2.44154 6.96582C2.09289 7.70075 1.9011 8.48198 1.84677 9.29687C1.75201 10.7224 1.98519 12.0886 2.60357 13.3769C2.99653 14.1956 3.5596 14.8927 4.25301 15.4803C5.43123 16.4784 6.80415 17.0874 8.28541 17.4607C9.5322 17.7748 10.7897 17.7861 12.0513 17.5203C13.2066 17.2772 14.2648 16.8281 15.1691 16.0595C15.9961 15.3566 16.683 14.5427 17.0275 13.4886C17.2215 12.8951 17.2063 12.2813 17.1672 11.6677C17.1565 11.502 17.1368 11.3372 17.1196 11.1533L17.1206 11.1543Z" fill="#ED3033"/>
<path d="M64 15.0992C63.6963 15.2393 63.3907 15.3909 63.0766 15.523C62.6892 15.6858 62.2978 15.8409 61.9026 15.9837C61.6374 16.0795 61.586 16.2893 61.5591 16.5276C61.4492 17.5001 61.0103 18.2921 60.2247 18.8745C59.3657 19.5113 58.1894 19.5113 57.2525 18.9065C56.7648 18.5915 56.4051 18.1499 56.0403 17.7122C56.0002 17.664 55.9582 17.617 55.9041 17.5549C55.6228 18.0531 55.3498 18.5362 55.0762 19.0205C55.029 19.0079 54.9872 19.0008 54.9484 18.9862C54.4918 18.8136 54.387 18.5093 54.6088 18.0732C54.855 17.5892 55.0765 17.0922 55.3197 16.6066C55.4368 16.3725 55.4006 16.1394 55.3679 15.8998C55.3158 15.5175 55.2512 15.1354 55.2253 14.7508C55.201 14.394 55.3718 14.2723 55.7191 14.3555C55.766 14.3668 55.8126 14.3791 55.8589 14.3921C56.1399 14.4714 56.1422 14.472 56.2179 14.1949C56.5733 12.8924 56.931 11.5909 57.278 10.2862C57.3227 10.1182 57.3346 9.93136 57.3159 9.75815C57.2266 8.92933 57.845 8.21642 58.6306 8.11799C58.715 8.10731 58.7994 8.09857 58.9022 8.08691C58.8896 8.28732 58.8835 8.47348 58.8657 8.65867C58.7473 9.90028 59.0407 11.0247 59.7852 12.0342C60.1917 12.5852 60.5818 13.1495 60.956 13.7229C61.2289 14.1412 61.3929 14.6126 61.4945 15.1027C61.5595 15.4155 61.6203 15.4553 61.9363 15.3769C62.5255 15.2309 63.1161 15.0894 63.7028 14.9334C63.8554 14.8929 63.944 14.9192 63.9997 15.1001L64 15.0992ZM56.6053 15.7292C56.5775 15.881 56.5057 16.0416 56.529 16.187C56.6351 16.853 56.8818 17.4636 57.3136 17.9919C57.7066 18.473 58.3295 18.7456 58.9747 18.4559C59.6102 18.1703 59.9676 17.6484 60.1662 17.0051C60.2441 16.7526 60.3039 16.4897 60.2373 16.2252C59.0294 16.0601 57.8359 15.8972 56.6056 15.7292H56.6053ZM57.9595 11.5893C57.6309 12.6752 57.3091 13.7391 56.9811 14.8223C58.0607 15.0419 59.1248 15.2581 60.2082 15.4786C60.0737 14.9952 59.9045 14.5514 59.6493 14.1506C59.2347 13.4998 58.7962 12.8639 58.3693 12.221C58.2347 12.0183 58.1044 11.8127 57.9598 11.5893H57.9595Z" fill="#ED3033"/>
<path d="M53.8301 7.52579C53.8857 7.33153 53.9646 7.03821 54.0532 6.7478C54.3534 5.76293 54.6551 4.77839 54.9598 3.79481C55.0442 3.52253 55.1506 3.43739 55.4294 3.4607C55.6839 3.48174 55.9381 3.52804 56.1868 3.58696C56.4087 3.63941 56.4601 3.74139 56.3828 3.95669C56.1884 4.49866 55.9743 5.03383 55.7858 5.57774C55.5241 6.33274 55.3379 7.10652 55.2505 7.90296C55.2308 8.08297 55.0775 8.13024 54.9436 8.12668C54.6719 8.11955 54.397 8.09495 54.1308 8.04185C53.9015 7.99588 53.8275 7.86573 53.8297 7.52611L53.8301 7.52579Z" fill="#ED3033"/>
<path d="M24.958 6.34494C24.9225 6.96882 24.4147 7.52763 23.7966 7.66328C23.5094 7.72641 23.2287 7.71994 22.97 7.56907C22.6168 7.36316 22.4991 6.95393 22.6533 6.50909C22.848 5.94737 23.4933 5.50544 24.0874 5.52713C24.4891 5.5417 24.8219 5.77351 24.9218 6.11572C24.947 6.20184 24.9503 6.29476 24.958 6.34494Z" fill="#ED3033"/>
<path d="M50.256 7.69593C50.026 7.68362 49.7259 7.59589 49.5609 7.2663C49.3682 6.88103 49.4668 6.52328 49.6955 6.19337C49.9448 5.834 50.2964 5.62097 50.7252 5.54165C51.0897 5.47431 51.5978 5.61126 51.7712 6.04412C51.8617 6.2701 51.8462 6.49673 51.765 6.71818C51.5564 7.2867 50.9646 7.69593 50.2556 7.69593H50.256Z" fill="#ED3033"/>
</svg>
