<?xml version="1.0" encoding="UTF-8"?>
<svg id="Layer_2" data-name="Layer 2" xmlns="http://www.w3.org/2000/svg" viewBox="0 0 900 900">
  <defs>
    <style>
      .cls-1, .cls-2, .cls-3 {
        fill: none;
      }

      .cls-1, .cls-2, .cls-3, .cls-4, .cls-5 {
        stroke-width: 0px;
      }

      .cls-2 {
        opacity: .2;
      }

      .cls-3 {
        opacity: .1;
      }

      .cls-4 {
        fill: #282724;
      }

      .cls-5 {
        fill: #888784;
      }
    </style>
  </defs>
  <g id="Layer_1-2" data-name="Layer 1">
    <g>
      <rect class="cls-1" width="900" height="900"/>
      <g>
        <rect class="cls-2" x="122.73" y="122.73" width="327.27" height="327.27"/>
        <path class="cls-4" d="m265.6,166.19h41.24l62.44,240.35h-31.81l-11.49-47.42h-79.23l-11.49,47.42h-31.81l62.15-240.35Zm54.2,166.71l-32.4-133.73-1.18-3.53-.88,3.24-32.4,134.02h66.86Z"/>
      </g>
      <g>
        <rect class="cls-3" x="450" y="122.73" width="327.27" height="327.27"/>
        <path class="cls-4" d="m530.13,320.24v-68.04c0-51.84,27.69-88.95,83.65-88.95s83.36,37.11,83.36,88.95v68.04c0,52.14-27.69,89.25-83.36,89.25s-83.65-37.11-83.65-89.25Zm83.65,62.74c34.17,0,51.84-21.5,51.84-58.03v-77.17c0-36.23-17.67-58.03-51.84-58.03s-52.14,21.8-52.14,58.03v77.17c0,36.52,17.67,58.03,52.14,58.03Z"/>
      </g>
      <g>
        <rect class="cls-3" x="122.73" y="450" width="327.27" height="327.27" transform="translate(572.73 1227.27) rotate(180)"/>
        <path class="cls-4" d="m208.6,647.21v-67.75c0-55.67,25.63-88.95,78.06-88.95s77.47,33.28,77.47,88.95v67.75c0,56.26-25.63,89.54-77.47,89.54s-78.06-33.28-78.06-89.54Zm32.99,27.98l83.06-140.21c-7.95-12.67-20.62-18.85-38-18.85-30.93,0-47.13,18.26-47.13,58.61v77.47c0,8.54.59,16.2,2.06,22.97Zm45.07,35.64c30.34,0,46.54-17.97,46.54-58.61v-77.47c0-7.07-.59-13.55-1.47-19.44l-81.88,139.32c7.95,10.9,20.32,16.2,36.82,16.2Z"/>
      </g>
      <g>
        <rect class="cls-2" x="450" y="450" width="327.27" height="327.27" transform="translate(1227.27 1227.27) rotate(180)"/>
        <path class="cls-4" d="m598.76,707.89v-178.79c-10.9,12.67-27.69,19.73-49.48,19.73v-27.39c21.5,0,38.29-7.95,51.25-27.98h28.57v214.43h48.9v25.92h-128.13v-25.92h48.89Z"/>
      </g>
      <path class="cls-5" d="m450,122.73c8.7,218.07,8.76,436.47,0,654.55-8.77-218.07-8.7-436.47,0-654.55h0Z"/>
      <path class="cls-5" d="m777.27,450c-218.07,8.7-436.47,8.76-654.55,0,218.07-8.77,436.47-8.7,654.55,0h0Z"/>
    </g>
  </g>
</svg>