<svg width="24" height="25" viewBox="0 0 24 25" fill="none" xmlns="http://www.w3.org/2000/svg">
<path d="M12.0002 1.56738C18.028 1.56747 22.9337 6.47307 22.9337 12.501C22.9337 18.5288 18.028 23.4345 12.0002 23.4346C5.97224 23.4346 1.06664 18.5289 1.06656 12.501C1.06656 6.47301 5.97219 1.56738 12.0002 1.56738ZM17.547 7.3916C16.8879 6.88175 15.937 7.00281 15.4269 7.66406L10.4884 14.0527L8.50211 11.8438L8.50113 11.8428L8.39078 11.7334C7.82168 11.2198 6.94968 11.2093 6.36734 11.7295L6.36636 11.7314C5.78544 12.2558 5.70412 13.1277 6.1564 13.7461L6.25406 13.8662L9.45425 17.4219V17.4229C9.74162 17.7404 10.1502 17.9217 10.5773 17.9219H10.6252L10.6339 17.9209C11.0825 17.9046 11.4992 17.6888 11.7726 17.335L17.8175 9.5127L17.8166 9.51172L17.8185 9.51074C18.3277 8.85058 18.2076 7.90186 17.5461 7.3916H17.547Z" fill="#10B981" stroke="#10B981" stroke-width="0.888889"/>
</svg>
