<svg width="15" height="16" viewBox="0 0 15 16" fill="none" xmlns="http://www.w3.org/2000/svg">
<g clip-path="url(#clip0_863_1569)">
<path fill-rule="evenodd" clip-rule="evenodd" d="M1.63152 0.869744C1.22969 0.769212 0.822444 1.01346 0.721913 1.41529C0.621381 1.81712 0.865631 2.22436 1.26746 2.32489L2.46835 2.62534L2.46891 2.62548C2.52271 2.63889 2.56407 2.68392 2.57236 2.74025L2.57237 2.74027L2.80993 4.35521C2.81145 4.36775 2.81329 4.3802 2.81542 4.39254L3.47759 8.89395C2.65038 9.08314 2.03286 9.82385 2.03286 10.7083C2.03286 11.7358 2.86643 12.5694 3.89397 12.5694H13.4495C13.8637 12.5694 14.1995 12.2336 14.1995 11.8194C14.1995 11.4052 13.8637 11.0694 13.4495 11.0694H3.89397C3.69485 11.0694 3.53286 10.9074 3.53286 10.7083C3.53286 10.5091 3.69485 10.3472 3.89397 10.3472H4.29684C4.32425 10.3487 4.35196 10.3487 4.37989 10.3472H11.4753C12.1795 10.3472 12.8074 9.89692 13.0305 9.2258L14.2153 5.67077L14.2153 5.67072C14.5693 4.60854 13.7786 3.51382 12.6602 3.51382H4.2023L4.05639 2.52194L4.05639 2.52192C3.95982 1.86556 3.47698 1.33116 2.83241 1.17019L2.83215 1.17013L2.83184 1.17005L1.63152 0.869744ZM4.42296 5.01382L4.98685 8.84716H11.4753C11.5356 8.84716 11.5886 8.8085 11.6072 8.75251L11.6073 8.75204L12.7922 5.19648L12.7922 5.19643C12.8222 5.10662 12.756 5.01382 12.6602 5.01382H4.42296ZM3.22729 15.1529C3.84094 15.1529 4.3384 14.6554 4.3384 14.0417C4.3384 13.4281 3.84094 12.9306 3.22729 12.9306C2.61364 12.9306 2.11618 13.4281 2.11618 14.0417C2.11618 14.6554 2.61364 15.1529 3.22729 15.1529ZM13.6717 14.0417C13.6717 14.6554 13.1743 15.1529 12.5606 15.1529C11.947 15.1529 11.4495 14.6554 11.4495 14.0417C11.4495 13.4281 11.947 12.9306 12.5606 12.9306C13.1743 12.9306 13.6717 13.4281 13.6717 14.0417Z" fill="#18181B"/>
</g>
<defs>
<clipPath id="clip0_863_1569">
<rect width="15" height="15" fill="white" transform="translate(0 0.5)"/>
</clipPath>
</defs>
</svg>
