<svg width="15" height="16" viewBox="0 0 15 16" fill="none" xmlns="http://www.w3.org/2000/svg">
<path d="M5 5.40988C5.00006 5.24682 5.03731 5.08676 5.10784 4.94646C5.17838 4.80615 5.27961 4.69073 5.40096 4.61228C5.52231 4.53383 5.65933 4.49521 5.79768 4.50047C5.93603 4.50574 6.07064 4.55468 6.18745 4.64219L9.64212 7.2317C9.75179 7.31392 9.84209 7.4274 9.90465 7.56165C9.9672 7.69589 10 7.84656 10 7.9997C10 8.15284 9.9672 8.3035 9.90465 8.43775C9.84209 8.57199 9.75179 8.68547 9.64212 8.76769L6.18745 11.3578C6.07061 11.4453 5.93595 11.4943 5.79755 11.4995C5.65915 11.5048 5.5221 11.4661 5.40074 11.3876C5.27937 11.309 5.17815 11.1935 5.10765 11.0532C5.03715 10.9128 4.99997 10.7526 5 10.5895V5.40988Z" fill="#52525B"/>
</svg>
