
<svg width="15" height="16" viewBox="0 0 15 16" fill="none" xmlns="http://www.w3.org/2000/svg">
<path d="M3.47222 13.4376C4.25079 13.4376 4.88194 12.8065 4.88194 12.0279C4.88194 11.2493 4.25079 10.6182 3.47222 10.6182C2.69365 10.6182 2.0625 11.2493 2.0625 12.0279C2.0625 12.8065 2.69365 13.4376 3.47222 13.4376Z" stroke="white" stroke-width="1.5" stroke-linecap="round" stroke-linejoin="round"/>
<path d="M9.31249 13.4376C10.0911 13.4376 10.7222 12.8065 10.7222 12.0279C10.7222 11.2493 10.0911 10.6182 9.31249 10.6182C8.53393 10.6182 7.90277 11.2493 7.90277 12.0279C7.90277 12.8065 8.53393 13.4376 9.31249 13.4376Z" stroke="white" stroke-width="1.5" stroke-linecap="round" stroke-linejoin="round"/>
<path d="M7.9181 11.8262H4.88196" stroke="white" stroke-width="1.5" stroke-linecap="round" stroke-linejoin="round"/>
<path d="M4.07642 2.96484H7.70142C8.59156 2.96484 9.31253 3.68582 9.31253 4.57595V10.6176" stroke="white" stroke-width="1.5" stroke-linecap="round" stroke-linejoin="round"/>
<path d="M9.3125 5.38184H11.0879C11.3618 5.38184 11.6172 5.5212 11.7654 5.75159L13.2122 8.00231C13.296 8.132 13.3403 8.28345 13.3403 8.43811V10.2152C13.3403 11.1053 12.6193 11.8263 11.7292 11.8263H10.7222" stroke="white" stroke-width="1.5" stroke-linecap="round" stroke-linejoin="round"/>
<path d="M9.3125 8.20117H13.2621" stroke="white" stroke-width="1.5" stroke-linecap="round" stroke-linejoin="round"/>
<path d="M2.46527 5.38184H5.88888" stroke="white" stroke-width="1.5" stroke-linecap="round" stroke-linejoin="round"/>
<path d="M0.854187 7.79883H4.2778" stroke="white" stroke-width="1.5" stroke-linecap="round" stroke-linejoin="round"/>
</svg>
